<svg width="14" height="14" viewBox="0 0 14 14" fill="none" xmlns="http://www.w3.org/2000/svg">
<path fill-rule="evenodd" clip-rule="evenodd" d="M7 13.5C10.5899 13.5 13.5 10.5899 13.5 7C13.5 3.41015 10.5899 0.5 7 0.5C3.41015 0.5 0.5 3.41015 0.5 7C0.5 10.5899 3.41015 13.5 7 13.5ZM6.53033 3.46967C6.23744 3.17678 5.76256 3.17678 5.46967 3.46967C5.17678 3.76256 5.17678 4.23744 5.46967 4.53033L7.93934 7L5.46967 9.46967C5.17678 9.76256 5.17678 10.2374 5.46967 10.5303C5.76256 10.8232 6.23744 10.8232 6.53033 10.5303L9.53033 7.53033L10.0607 7L9.53033 6.46967L6.53033 3.46967Z" fill="#21201F"/>
</svg>
