<svg width="24" height="24" viewBox="0 0 24 24" fill="none" xmlns="http://www.w3.org/2000/svg">
<path fill-rule="evenodd" clip-rule="evenodd" d="M12 2C9.34784 2 6.8043 3.05357 4.92893 4.92893C3.05357 6.8043 2 9.34784 2 12C2 14.6522 3.05357 17.1957 4.92893 19.0711C6.8043 20.9464 9.34784 22 12 22C14.6522 22 17.1957 20.9464 19.0711 19.0711C20.9464 17.1957 22 14.6522 22 12C22 9.34784 20.9464 6.8043 19.0711 4.92893C17.1957 3.05357 14.6522 2 12 2ZM15.1005 6.40033C15.3955 6.67738 15.6255 7.01924 15.7734 7.40033C15.9252 7.82633 16.0012 8.27681 15.9978 8.73033C16.0129 9.12767 15.9509 9.52413 15.8153 9.89666C15.6796 10.2692 15.4731 10.6104 15.2078 10.9003C14.99 11.1461 14.7445 11.3643 14.4763 11.5503L13.7545 12.0603C13.546 12.1978 13.3974 12.3625 13.2304 12.5503C13.1539 12.6311 13.0939 12.7266 13.0537 12.8313C13.0135 12.936 12.9878 13.0478 12.9901 13.1603V13.5003H10.9901V13.1703C10.9751 12.7837 11.0556 12.3982 11.1992 12.0403C11.33 11.7599 11.5046 11.5032 11.7161 11.2803C11.9186 11.0665 12.1483 10.8815 12.3988 10.7303C12.6342 10.5799 12.8591 10.4129 13.0718 10.2303C13.2743 10.06 13.4488 9.8574 13.5887 9.63033C13.7426 9.3575 13.8171 9.04519 13.8033 8.73033C13.8026 8.54743 13.7764 8.36557 13.7253 8.19033C13.6742 8.01484 13.5622 7.85393 13.4401 7.72033C13.0189 7.3856 12.6463 7.24851 11.9929 7.24851C11.3394 7.24851 10.9512 7.38633 10.5401 7.71033C10.4179 7.84393 10.3236 8.00484 10.2726 8.18033C10.2168 8.35447 10.1904 8.87945 10.1946 9.06269H8.00011C7.99667 8.60917 8.07265 7.81633 8.22444 7.39033C8.36892 7.00736 8.59949 6.66475 8.89741 6.39033C9.22582 6.09459 9.61132 5.87311 10.0288 5.74033C10.6663 5.57478 11.3219 5.49411 11.9794 5.50033C12.6369 5.49575 13.2923 5.57639 13.9301 5.74033C14.3622 5.87086 14.7615 6.09605 15.1005 6.40033ZM13.75 16.9951C13.75 17.9616 12.9665 18.7451 12 18.7451C11.0335 18.7451 10.25 17.9616 10.25 16.9951C10.25 16.0286 11.0335 15.2451 12 15.2451C12.9665 15.2451 13.75 16.0286 13.75 16.9951Z" fill="#21201F"/>
</svg>
