<svg width="175" height="26" viewBox="0 0 175 26" fill="none" xmlns="http://www.w3.org/2000/svg">
<path d="M10.0468 22V6.63586H8.6663C6.13543 6.63586 4.80609 7.91408 4.80609 9.80583C4.80609 11.9532 5.7264 12.9502 7.61816 14.2285L9.17758 15.2766L4.67827 22H1.32934L5.3685 15.9924C3.04215 14.3307 1.73837 12.7202 1.73837 9.98478C1.73837 6.55917 4.11585 4.23282 8.64073 4.23282H13.14V22H10.0468ZM50.6684 21.1308C49.7737 21.7444 48.3421 22.2556 46.3992 22.2556C42.5134 22.2556 40.3149 20.0827 40.3149 15.6089C40.3149 11.7232 42.0788 8.88552 45.7856 8.88552C48.8278 8.88552 50.7962 10.5728 50.7962 15.0465V16.6571H43.4593C43.5871 18.8045 44.4307 19.8526 46.6548 19.8526C48.1376 19.8526 49.7225 19.2902 50.6684 18.6511V21.1308ZM69.6883 22.2556C65.6235 22.2556 63.6551 19.8782 63.6551 15.5834C63.6551 11.672 65.6747 8.88552 69.5604 8.88552C71.0687 8.88552 72.1936 9.14116 72.8327 9.49906V12.0811C72.2191 11.6976 71.0687 11.2886 69.8928 11.2886C67.8988 11.2886 66.7995 12.7202 66.7995 15.5067C66.7995 18.1654 67.6942 19.8526 69.8672 19.8526C71.1454 19.8526 72.0657 19.5203 72.8327 18.9834V21.4631C72.0913 22 71.0943 22.2556 69.6883 22.2556ZM22.8033 9.14116H25.8455V22H22.8033V16.6315H18.7386V22H15.6965V9.14116H18.7386V14.2285H22.8033V9.14116ZM39.5735 19.597V24.9399H36.7615V22H29.9358V24.9399H27.1237V19.597H28.0696C29.1433 17.4496 29.3478 13.3848 29.3478 10.2404V9.14116H38.2186V19.597H39.5735ZM60.3829 22L55.8835 15.6856V22H52.8414V9.14116H55.8835V15.0721L60.1783 9.14116H63.2461L58.9513 15.0721L63.834 22H60.3829ZM45.7345 11.2886C44.2774 11.2886 43.536 12.3623 43.4593 14.4074H47.703V14.1518C47.703 12.5412 47.2428 11.2886 45.7345 11.2886ZM35.1765 19.597V11.5442H31.9554V11.9277C31.9554 14.1518 31.7253 17.6541 30.8817 19.597H35.1765Z" fill="#21201F"/>
<path d="M81.0166 25.7068H78.1278V19.597H79.2782C80.0963 18.242 80.4286 15.7623 80.5564 11.5442L80.8121 4.23282H91.1656V19.597H92.8273V25.7068H89.9385V22H81.0166V25.7068ZM83.2662 11.9532C83.1384 16.1713 82.7294 18.3699 82.1925 19.597H88.0723V6.63586H83.4452L83.2662 11.9532ZM99.3963 8.88552C102.745 8.88552 105.072 11.263 105.072 15.5578C105.072 19.8782 102.745 22.2556 99.3963 22.2556C96.0474 22.2556 93.721 19.8782 93.721 15.5834C93.721 11.263 96.0474 8.88552 99.3963 8.88552ZM99.3963 19.8526C101.084 19.8526 101.927 18.5488 101.927 15.5578C101.927 12.5923 101.084 11.2886 99.3963 11.2886C97.7091 11.2886 96.8654 12.5923 96.8654 15.5834C96.8654 18.5488 97.7091 19.8526 99.3963 19.8526ZM112.636 22.2556C108.571 22.2556 106.603 19.8782 106.603 15.5834C106.603 11.672 108.623 8.88552 112.508 8.88552C114.017 8.88552 115.142 9.14116 115.781 9.49906V12.0811C115.167 11.6976 114.017 11.2886 112.841 11.2886C110.847 11.2886 109.747 12.7202 109.747 15.5067C109.747 18.1654 110.642 19.8526 112.815 19.8526C114.093 19.8526 115.014 19.5203 115.781 18.9834V21.4631C115.039 22 114.042 22.2556 112.636 22.2556ZM127.133 11.5442H123.554V22H120.512V11.5442H116.933V9.14116H127.133V11.5442ZM137.772 13.2314V18.8556C137.772 19.9037 137.823 20.9519 137.925 22H134.96C134.858 21.7444 134.756 21.3098 134.73 20.9774H134.602C134.014 21.591 133.247 22.179 131.458 22.179C129.106 22.179 127.521 20.7218 127.521 18.1142C127.521 15.5067 129.592 13.9728 134.244 13.9728H134.73V13.257C134.73 11.8765 134.065 11.3653 132.608 11.3653C131.049 11.3653 129.259 12.0299 128.441 12.6435V10.1126C129.361 9.57575 130.946 8.93665 132.966 8.93665C136.187 8.93665 137.772 10.1126 137.772 13.2314ZM134.73 18.9323V15.9924H134.295C131.688 15.9924 130.64 16.5292 130.64 18.0375C130.64 19.1879 131.279 19.9549 132.557 19.9549C133.631 19.9549 134.346 19.4947 134.73 18.9323ZM145.28 22H140.218V9.14116H145.331C148.143 9.14116 149.6 10.2149 149.6 12.4134C149.6 13.9472 148.731 14.9187 147.351 15.3022C149.063 15.6089 150.086 16.5804 150.086 18.2676C150.086 20.7218 148.296 22 145.28 22ZM144.896 11.4419H143.26V14.3051H144.794C145.944 14.3051 146.609 13.7683 146.609 12.8735C146.609 11.9021 145.996 11.4419 144.896 11.4419ZM144.947 16.5292H143.26V19.6992H144.947C146.175 19.6992 146.942 19.2391 146.942 18.0631C146.942 16.9894 146.251 16.5292 144.947 16.5292ZM159.668 22L155.169 15.6856V22H152.126V9.14116H155.169V15.0721L159.463 9.14116H162.531L158.236 15.0721L163.119 22H159.668ZM173.472 13.2314V18.8556C173.472 19.9037 173.523 20.9519 173.626 22H170.66C170.558 21.7444 170.456 21.3098 170.43 20.9774H170.302C169.714 21.591 168.947 22.179 167.158 22.179C164.806 22.179 163.221 20.7218 163.221 18.1142C163.221 15.5067 165.292 13.9728 169.944 13.9728H170.43V13.257C170.43 11.8765 169.765 11.3653 168.308 11.3653C166.749 11.3653 164.959 12.0299 164.141 12.6435V10.1126C165.062 9.57575 166.647 8.93665 168.666 8.93665C171.887 8.93665 173.472 10.1126 173.472 13.2314ZM170.43 18.9323V15.9924H169.996C167.388 15.9924 166.34 16.5292 166.34 18.0375C166.34 19.1879 166.979 19.9549 168.257 19.9549C169.331 19.9549 170.047 19.4947 170.43 18.9323Z" fill="#21201F"/>
</svg>
